<?xml version="1.0" encoding="utf-8"?>
<!-- Generator: Adobe Illustrator 25.4.1, SVG Export Plug-In . SVG Version: 6.00 Build 0)  -->
<svg version="1.1" id="Layer_1" xmlns="http://www.w3.org/2000/svg" xmlns:xlink="http://www.w3.org/1999/xlink" x="0px" y="0px"
	 viewBox="0 0 60.5 18.8" style="enable-background:new 0 0 60.5 18.8;" xml:space="preserve">
<style type="text/css">
	.st0{fill-rule:evenodd;clip-rule:evenodd;fill:#fff;}
</style>
<g>
	<path class="st0" d="M49,4.3c-0.6,0-1,0.5-1,1c0,0.6,0.5,1,1,1l0,0c0.6,0,1-0.5,1-1S49.6,4.3,49,4.3L49,4.3 M49.7,7.2h-1.5
		c-0.1,0-0.1,0-0.1,0.1v6.3c0,0.1,0,0.1,0.1,0.1h1.5c0.1,0,0.1,0,0.1-0.1V7.3C49.8,7.2,49.8,7.2,49.7,7.2 M53,7.2V7
		c0-0.6,0.2-0.9,0.7-0.9c0.3,0,0.5,0.1,0.8,0.2c0.1,0,0.1,0,0.1-0.1c0,0,0,0,0,0V4.9c0,0,0-0.1-0.1-0.1c-0.4-0.1-0.8-0.2-1.2-0.2
		c-1.3,0-2.1,0.8-2.1,2.2v0.3h-0.7c-0.1,0-0.1,0-0.1,0.1v1.3c0,0.1,0,0.1,0.1,0.1h0.7v5c0,0.1,0,0.1,0.1,0.1h1.5
		c0.1,0,0.1,0,0.1-0.1v-5h1.4l2.1,5c-0.2,0.5-0.5,0.6-0.8,0.6c-0.3,0-0.5-0.1-0.8-0.2c0,0-0.1,0-0.1,0c0,0-0.1,0-0.1,0.1l-0.5,1.1
		c0,0.1,0,0.1,0,0.1c0.5,0.3,1,0.4,1.6,0.4c1.1,0,1.7-0.5,2.2-1.8l2.5-6.5c0-0.1,0-0.1-0.1-0.1c0,0,0,0,0,0h-1.5c0,0-0.1,0-0.1,0.1
		l-1.6,4.4l-1.7-4.4c0,0-0.1-0.1-0.1-0.1L53,7.2 M47.4,7.2h-1.6V5.5c0-0.1,0-0.1-0.1-0.1c0,0,0,0,0,0h-1.5c-0.1,0-0.1,0-0.1,0.1v1.6
		h-0.7c-0.1,0-0.1,0-0.1,0.1c0,0,0,0,0,0v1.2c0,0.1,0,0.1,0.1,0.1h0.7v3.2c0,1.3,0.7,2,1.9,2c0.5,0,1-0.1,1.4-0.3
		c0,0,0.1-0.1,0.1-0.1v-1.2c0-0.1,0-0.1-0.1-0.1c0,0,0,0,0,0c-0.3,0.1-0.6,0.2-0.9,0.2c-0.5,0-0.7-0.2-0.7-0.7v-3h1.6
		c0.1,0,0.1,0,0.1-0.1c0,0,0,0,0,0V7.3C47.5,7.2,47.4,7.2,47.4,7.2C47.4,7.2,47.4,7.2,47.4,7.2 M39.7,7c-2,0-3.5,1.5-3.5,3.4
		c0,1.9,1.5,3.4,3.5,3.4c2,0,3.5-1.5,3.5-3.4C43.2,8.5,41.7,7,39.7,7 M39.7,12.4c-1,0-1.8-0.8-1.8-1.9c0-1.1,0.8-1.9,1.8-1.9
		c1,0,1.8,0.8,1.8,1.9C41.5,11.6,40.8,12.4,39.7,12.4 M32.7,7c-0.8,0-1.5,0.3-2,1V7.3c0-0.1,0-0.1-0.1-0.1h-1.5
		c-0.1,0-0.1,0-0.1,0.1v8.3c0,0.1,0,0.1,0.1,0.1h1.5c0.1,0,0.1,0,0.1-0.1v-2.6c0.6,0.6,1.2,0.9,2,0.9c1.5,0,3.1-1.2,3.1-3.4
		S34.2,7,32.7,7 M34.1,10.4c0,1.1-0.7,1.9-1.7,1.9c-1,0-1.7-0.8-1.7-1.9s0.8-1.9,1.7-1.9C33.3,8.5,34.1,9.3,34.1,10.4 M25.6,8.6
		C24,8.2,23.7,8,23.7,7.4c0-0.5,0.5-0.9,1.3-0.9c0.7,0,1.5,0.3,2.2,0.8c0,0,0.1,0,0.1,0c0,0,0,0,0,0l0.8-1.1c0,0,0-0.1,0-0.1
		C27.2,5.3,26.2,5,25,5c-1.8,0-3,1.1-3,2.6c0,1.6,1.1,2.2,2.9,2.6c1.6,0.4,1.8,0.7,1.8,1.2c0,0.6-0.5,1-1.4,1
		c-0.9,0-1.7-0.3-2.6-1.1c0,0,0,0-0.1,0c0,0-0.1,0-0.1,0l-0.9,1.1c0,0,0,0.1,0,0.1c1,0.9,2.3,1.4,3.6,1.4c1.9,0,3.1-1,3.1-2.6
		C28.4,9.9,27.6,9.1,25.6,8.6 M9.4,0C4.2,0,0,4.2,0,9.4s4.2,9.4,9.4,9.4s9.4-4.2,9.4-9.4S14.6,0,9.4,0 M13.7,13.6
		c-0.2,0.3-0.5,0.4-0.8,0.2c0,0,0,0,0,0c-2.2-1.4-5-1.7-8.3-0.9C4.3,12.9,4,12.7,4,12.4c-0.1-0.3,0.1-0.6,0.4-0.7l0,0
		c3.6-0.8,6.7-0.5,9.1,1C13.8,12.9,13.9,13.3,13.7,13.6 M14.9,11c-0.2,0.3-0.7,0.5-1,0.2c-2.5-1.6-6.4-2-9.4-1.1
		C4.1,10.2,3.7,10,3.6,9.6C3.5,9.2,3.7,8.9,4.1,8.8c3.4-1,7.7-0.5,10.6,1.2C15,10.2,15.1,10.7,14.9,11C14.9,11,14.9,11,14.9,11
		 M15,8.3c-3-1.8-8-2-10.9-1.1c-0.5,0.1-1-0.1-1.1-0.6s0.1-1,0.6-1.1c0,0,0,0,0,0c3.3-1,8.8-0.8,12.3,1.3c0.4,0.2,0.6,0.8,0.3,1.2
		C15.9,8.5,15.4,8.6,15,8.3"/>
</g>
</svg>
